<svg id="Layer_1" data-name="Layer 1" xmlns="http://www.w3.org/2000/svg" viewBox="0 0 49.03 612.82"><title>gradshow</title><path d="M559.85,139.45v22.06H533v-11.1l5.41-.58q-6.13-3.68-6.13-12.91a22.89,22.89,0,0,1,2.78-11.28,19.78,19.78,0,0,1,8.26-7.93,28,28,0,0,1,13.34-2.92q11.68,0,18.17,6.53t6.49,18.13q0,8.87-3,14.1t-10,8.11L562.66,146q6.06-.94,6.06-6,0-4.18-2.85-6.13t-9-1.95q-6.64,0-9.48,2.09t-2.85,6.56a8.74,8.74,0,0,0,1.26,5,4.21,4.21,0,0,0,3.71,1.84h.07v-8Z" transform="translate(-532.3 -114.79)" fill="#464647"/><path d="M548.82,189.42v-4.61H533V168.37h47.59v25.81q0,9.52-4,14.38t-11.93,4.87q-10.46,0-14.06-8.58L533,216.1V197.86Zm11-4.61v6a7.88,7.88,0,0,0,1,4.51,5,5,0,0,0,6.81,0,7.66,7.66,0,0,0,1-4.51v-6Z" transform="translate(-532.3 -114.79)" fill="#464647"/><path d="M542.11,246.67V233.84L533,231.6V214.87l47.59,15.43V250.5L533,266V248.84Zm10.46-2.45,15.86-3.82v-.22l-8.08-1.87-7.79-1.95Z" transform="translate(-532.3 -114.79)" fill="#464647"/><path d="M574.45,309.08q-6.17,5.73-17.63,5.73t-17.63-5.73Q533,303.35,533,292.24V268.88h47.59v23.36Q580.62,303.35,574.45,309.08ZM547.73,296q2.74,1.66,9.09,1.66t9.09-1.66q2.74-1.66,2.74-6.13v-4.18H545v4.18Q545,294.33,547.73,296Z" transform="translate(-532.3 -114.79)" fill="#464647"/><path d="M579.68,352.52a29.47,29.47,0,0,1-5.91,9.88L563.31,355a21.37,21.37,0,0,0,4.36-6.6A20,20,0,0,0,569,341a9.09,9.09,0,0,0-.76-4,2.26,2.26,0,0,0-2-1.51q-.79,0-1.22,1.44t-1.08,5q-1.87,10.45-5.66,15t-10.64,4.58a12.84,12.84,0,0,1-8.36-2.81,17.19,17.19,0,0,1-5.23-7.64,31.34,31.34,0,0,1-1.77-10.82,46.39,46.39,0,0,1,1.59-13.48A34,34,0,0,1,539,316.9l11.39,7.21a19.74,19.74,0,0,0-4.36,6.63,22.71,22.71,0,0,0-1.41,8.29q0,5.26,2.16,5.26,1.15,0,1.73-1.66a38.11,38.11,0,0,0,1.23-5.41,68.68,68.68,0,0,1,2.31-9.34,16.39,16.39,0,0,1,4.4-6.78q3.1-2.92,8.51-2.92a14.5,14.5,0,0,1,8.58,2.6,16.8,16.8,0,0,1,5.73,7.61,31.8,31.8,0,0,1,2.05,12.08A38.35,38.35,0,0,1,579.68,352.52Z" transform="translate(-532.3 -114.79)" fill="#464647"/><path d="M580.62,413H533v-16.8h17.74V383.17H533v-16.8h47.59v16.8H563.09v13.05h17.52Z" transform="translate(-532.3 -114.79)" fill="#464647"/><path d="M574.88,460.72q-6.45,6.38-18.06,6.38t-18.06-6.38q-6.45-6.38-6.45-17.77A27.28,27.28,0,0,1,535.19,430a19.72,19.72,0,0,1,8.4-8.36,31.43,31.43,0,0,1,26.46,0,19.72,19.72,0,0,1,8.4,8.36,27.28,27.28,0,0,1,2.88,12.94Q581.34,454.34,574.88,460.72Zm-9-23.15q-2.85-1.7-9-1.7t-9,1.7a5.79,5.79,0,0,0-2.85,5.37,5.71,5.71,0,0,0,2.85,5.34q2.85,1.66,9,1.66t9-1.66a5.71,5.71,0,0,0,2.85-5.34A5.79,5.79,0,0,0,565.87,437.57Z" transform="translate(-532.3 -114.79)" fill="#464647"/><path d="M533,499.12V480.66l47.59-13.48v18.1l-34.39,5.55,34.39,6.71V512L546.44,519l34.18,5.41v17.45L533,528.32V510.51l17.88-3.75,12.19-1.87v-.22l-12.19-1.87Z" transform="translate(-532.3 -114.79)" fill="#464647"/><path d="M543.12,562.06q5.48,10.38,11.18,15.83t10.09,5.44a5,5,0,0,0,3.1-.94,3.49,3.49,0,0,0,1.23-3,3.85,3.85,0,0,0-2.05-3.61q-2.06-1.15-6.38-1l3.46-14.35a16.58,16.58,0,0,1,9.77,2.45,15.73,15.73,0,0,1,5.88,7.21,26.67,26.67,0,0,1,1.95,10.46A22.91,22.91,0,0,1,579,591.7a14.81,14.81,0,0,1-13.12,8.15,16.39,16.39,0,0,1-11.75-5,46.22,46.22,0,0,1-9.16-13.48h-.14q.43,4.47.43,11.32v7.43H533V562.06Z" transform="translate(-532.3 -114.79)" fill="#464647"/><path d="M538.4,609.8q6.09-5.19,18.42-5.19t18.42,5.19q6.09,5.19,6.09,15.94t-6.09,15.94q-6.1,5.19-18.42,5.19t-18.42-5.19q-6.1-5.19-6.09-15.94T538.4,609.8ZM546,628.62A6.57,6.57,0,0,0,549.5,630a67.74,67.74,0,0,0,14.64,0,6.58,6.58,0,0,0,3.53-1.41,4.5,4.5,0,0,0,0-5.77,6.55,6.55,0,0,0-3.53-1.41,67.74,67.74,0,0,0-14.64,0,6.54,6.54,0,0,0-3.53,1.41,4.5,4.5,0,0,0,0,5.77Z" transform="translate(-532.3 -114.79)" fill="#464647"/><path d="M580.62,678.51H533V662.43H564.9a20.57,20.57,0,0,1-5.41-10.6L573,650.9a24.4,24.4,0,0,0,2.78,8.62,15.44,15.44,0,0,0,4.87,5.95Z" transform="translate(-532.3 -114.79)" fill="#464647"/><path d="M580.62,727.62h-11.1a41.6,41.6,0,0,0-16.4-11.5A58.57,58.57,0,0,0,533,712.91V696.47a48.35,48.35,0,0,1,18.82,3.5A49.85,49.85,0,0,1,568,711.39V685.65h12.62Z" transform="translate(-532.3 -114.79)" fill="#464647"/></svg>